<?xml version="1.0" standalone="no"?>
<!DOCTYPE svg PUBLIC "-//W3C//DTD SVG 20010904//EN"
 "http://www.w3.org/TR/2001/REC-SVG-20010904/DTD/svg10.dtd">
<svg version="1.0" xmlns="http://www.w3.org/2000/svg"
 width="353.000000pt" height="196.000000pt" viewBox="0 0 353.000000 196.000000"
 preserveAspectRatio="xMidYMid meet">
<metadata>
Created by potrace 1.13, written by Peter Selinger 2001-2015
</metadata>
<g transform="translate(0.000000,196.000000) scale(0.100000,-0.100000)"
fill="#000000" stroke="none">
<path d="M493 1865 c-216 -58 -346 -237 -345 -475 0 -141 44 -249 141 -353 58
-63 108 -91 203 -116 71 -19 106 -21 394 -21 l316 0 -4 -197 c-3 -192 -4 -200
-30 -253 -55 -112 -186 -209 -329 -244 -88 -22 -238 -22 -309 0 -116 34 -240
136 -293 240 -14 28 -31 79 -37 115 -7 35 -14 69 -16 75 -1 7 -21 11 -51 10
-41 -2 -48 -5 -51 -24 -6 -39 37 -184 71 -241 53 -90 152 -182 248 -229 101
-49 161 -62 282 -62 126 0 215 21 326 76 130 64 204 139 257 261 l38 88 4 193
4 192 412 0 412 0 42 -36 c23 -19 57 -62 76 -94 61 -104 66 -135 66 -417 l0
-253 60 0 60 0 0 285 c0 258 -2 290 -20 336 -19 52 -57 115 -94 157 l-19 22
392 0 391 0 70 35 c86 43 137 88 189 166 63 94 86 174 86 304 0 89 -5 123 -24
178 -37 109 -128 218 -224 269 l-42 23 -973 2 -973 3 1 -263 c0 -144 0 -335 0
-424 l0 -163 -352 0 c-405 0 -398 -1 -481 89 -70 75 -100 146 -105 252 -9 175
71 313 214 370 56 23 72 24 332 27 l272 3 0 55 0 54 -267 -1 c-197 0 -282 -4
-320 -14z m1665 -114 c52 -27 129 -111 158 -175 71 -156 49 -335 -58 -452 -90
-98 -66 -94 -538 -94 l-410 0 0 370 0 370 405 0 c379 0 408 -1 443 -19z m983
-9 c207 -133 251 -438 87 -618 -90 -98 -70 -94 -513 -94 l-387 0 35 48 c77
106 102 187 102 332 0 129 -25 211 -91 300 l-44 60 383 0 383 0 45 -28z"/>
</g>
</svg>
